HIERARCHY
ROOT hip
{
	OFFSET 0.000000 0.000000 0.000000 
	CHANNELS 6 Xposition Yposition Zposition Xrotation Zrotation Yrotation
	JOINT abdomen
	{
		OFFSET 0.000000 3.402643 0.000000 
		CHANNELS 3 Xrotation Zrotation Yrotation
		JOINT chest
		{
			OFFSET 0.000000 8.438565 -0.680529 
			CHANNELS 3 Xrotation Zrotation Yrotation
			JOINT neck
			{
				OFFSET 0.000000 10.207942 -0.272212 
				CHANNELS 3 Xrotation Zrotation Yrotation
				JOINT head
				{
					OFFSET 0.000000 3.130431 0.000000 
					CHANNELS 3 Xrotation Zrotation Yrotation
					End Site
					{
						OFFSET 0.000000 3.130435 0.000000 
					}
				}
			}
			JOINT lCollar
			{
				OFFSET 3.470700 6.669187 -0.816635 
				CHANNELS 3 Yrotation Zrotation Xrotation
				JOINT lShldr
				{
					OFFSET 3.198488 0.000000 0.000000 
					CHANNELS 3 Zrotation Yrotation Xrotation
					JOINT lForeArm
					{
						OFFSET 10.139888 0.000000 0.000000 
						CHANNELS 3 Yrotation Zrotation Xrotation
						JOINT lHand
						{
							OFFSET 8.370511 0.000000 0.000000 
							CHANNELS 3 Zrotation Yrotation Xrotation
							End Site
							{
								OFFSET 4.083176 0.000000 0.000000 
							}
						}
					}
				}
			}
			JOINT rCollar
			{
				OFFSET -3.470700 6.669187 -0.816635 
				CHANNELS 3 Yrotation Zrotation Xrotation
				JOINT rShldr
				{
					OFFSET -3.198488 0.000000 0.000000 
					CHANNELS 3 Zrotation Yrotation Xrotation
					JOINT rForeArm
					{
						OFFSET -10.139888 0.000000 0.000000 
						CHANNELS 3 Yrotation Zrotation Xrotation
						JOINT rHand
						{
							OFFSET -8.370511 0.000000 0.000000 
							CHANNELS 3 Zrotation Yrotation Xrotation
							End Site
							{
								OFFSET -4.083176 0.000000 0.000000 
							}
						}
					}
				}
			}
		}
	}
	JOINT lThigh
	{
		OFFSET 5.308129 -1.633274 1.361059 
		CHANNELS 3 Xrotation Zrotation Yrotation
		JOINT lShin
		{
			OFFSET -2.041588 -20.007561 0.000000 
			CHANNELS 3 Xrotation Zrotation Yrotation
			JOINT lFoot
			{
				OFFSET 0.000000 -19.190928 -1.224953 
				CHANNELS 3 Xrotation Yrotation Zrotation
				End Site
				{
					OFFSET 0.000000 -2.449906 4.627600 
				}
			}
		}
	}
	JOINT rThigh
	{
		OFFSET -5.308129 -1.633274 1.361059 
		CHANNELS 3 Xrotation Zrotation Yrotation
		JOINT rShin
		{
			OFFSET 2.041588 -20.007561 0.000000 
			CHANNELS 3 Xrotation Zrotation Yrotation
			JOINT rFoot
			{
				OFFSET 0.000000 -19.190928 -1.224953 
				CHANNELS 3 Xrotation Yrotation Zrotation
				End Site
				{
					OFFSET 0.000000 -2.449906 4.627600 
				}
			}
		}
	}
}
MOTION
Frames: 15
Frame Time: 0.016667
-1.173856 41.315708 -2.097019 38.266701 43.573002 -26.463400 -13.424200 8.087920 5.357000 9.674670 -1.352200 2.867280 5.973640 -9.794550 -4.014260 11.162800 0.072396 -2.098450 2.000000 -2.000000 0.000000 10.330400 -114.441002 129.979996 39.453499 -0.320413 0.086934 0.048199 -0.033632 -149.020996 -2.000000 2.000000 0.000000 11.970600 54.754002 113.878998 -43.984798 0.313220 0.094949 -0.088927 -0.089678 -98.621101 -58.935604 -4.902761 31.294872 25.266426 0.841604 3.094250 -8.737999 16.485218 5.513165 -82.379601 -2.247664 33.848515 38.076408 -1.556135 -3.198948 3.788074 16.397137 -0.994121 
-1.132391 41.344837 -2.105995 38.287498 43.396099 -26.202299 -13.463800 8.185770 5.618820 9.624990 -1.524570 3.018930 6.164510 -10.574300 -3.615700 11.367200 -0.247678 -1.963710 2.000000 -2.000000 0.000000 10.735200 -114.939003 129.677994 39.355900 -0.320561 0.086754 0.048461 -0.034834 -149.460999 -2.000000 2.000000 0.000000 9.811080 54.355999 111.184998 -40.605900 0.318645 0.088986 -0.087582 -0.087952 -99.402397 -58.783859 -5.145569 30.829670 24.874952 0.821814 3.064028 -8.497072 16.686674 5.548803 -82.289482 -2.457077 33.766567 38.095764 -1.561220 -3.200165 3.740994 16.316240 -0.997428 
-1.069861 41.392662 -2.110095 37.981300 43.208900 -26.155399 -13.420700 8.185480 5.702490 9.624530 -1.610870 3.064880 6.363710 -11.287200 -2.536520 11.699000 -0.432059 -1.491870 2.000000 -2.000000 0.000000 11.015700 -115.222000 129.552002 38.974998 -0.321135 0.086050 0.048539 -0.035181 -149.587997 -2.000000 2.000000 0.000000 7.497920 53.810799 109.233002 -37.041401 0.323976 0.082360 -0.081968 -0.080168 -102.830002 -58.449009 -5.455863 30.531336 24.561863 0.818799 3.054169 -8.355985 16.859093 5.583484 -82.010597 -2.765134 33.603020 38.036869 -1.570101 -3.204428 3.851092 16.333166 -1.047313 
-1.007334 41.440495 -2.114206 37.689301 43.015598 -26.110300 -13.377200 8.188590 5.796660 9.624050 -1.697160 3.110830 6.556650 -11.998000 -1.463120 12.030900 -0.635478 -1.024930 2.000000 -2.000000 0.000000 11.286500 -115.505997 129.434006 38.594101 -0.321704 0.085341 0.048623 -0.035554 -149.723999 -2.000000 2.000000 0.000000 5.253390 53.216499 107.339996 -33.486698 0.328872 0.075435 -0.076829 -0.072063 -106.258003 -58.073071 -5.774683 30.220140 24.132105 0.799046 3.044883 -8.141333 17.006990 5.605682 -81.730247 -3.059997 33.441963 37.977566 -1.579536 -3.199345 3.984730 16.327389 -1.089418 
-0.934174 41.463692 -2.131248 37.503601 42.692501 -25.786200 -13.382900 8.233880 5.695080 9.604840 -1.639520 3.061220 6.133810 -12.729700 0.217412 12.177400 -0.712885 -0.295463 2.000000 -2.000000 0.000000 11.976600 -115.516998 128.692001 38.359798 -0.322052 0.084904 0.048782 -0.036247 -149.977997 -2.000000 2.000000 0.000000 4.635440 52.748100 106.811996 -31.865601 0.330960 0.072179 -0.074796 -0.068532 -107.712997 -57.788250 -6.017484 30.135101 23.936075 0.799130 3.031858 -7.980762 16.756029 5.514769 -81.501892 -3.412658 33.238716 38.103291 -1.593090 -3.180981 3.875267 16.239273 -1.071798 
-0.861013 41.486763 -2.148278 37.315800 42.361000 -25.475700 -13.389000 8.288680 5.591250 9.585660 -1.572310 3.009720 5.703160 -13.440600 1.904060 12.323900 -0.799894 0.432198 2.000000 -2.000000 0.000000 12.656900 -115.528000 127.949997 38.115601 -0.322413 0.084446 0.048945 -0.036940 -150.231995 -2.000000 2.000000 0.000000 4.037100 52.269901 106.293999 -30.244499 0.332955 0.068866 -0.072853 -0.064950 -109.167999 -57.532043 -6.247319 30.038387 23.800219 0.784095 3.043192 -7.826285 16.493151 5.386289 -81.263489 -3.770296 33.025269 38.249149 -1.600218 -3.169752 3.755727 16.178820 -1.066670 
-0.777645 41.526207 -2.171376 37.092400 41.906601 -25.105600 -13.456100 8.845970 5.502730 9.383510 -0.852670 2.893000 4.965490 -14.032600 4.129230 12.353200 -0.635635 1.403140 2.000000 -2.000000 0.000000 13.437800 -115.706001 125.957001 37.900799 -0.322729 0.084042 0.049116 -0.037658 -150.496002 -2.000000 2.000000 0.000000 5.752200 51.731499 108.167000 -32.627300 0.329990 0.073717 -0.072297 -0.063883 -109.598000 -57.180172 -6.490217 29.802397 23.623592 0.788020 3.030366 -7.565522 16.328699 5.276048 -80.885757 -4.114898 32.912910 38.366825 -1.608935 -3.188748 3.478990 15.936737 -1.021544 
-0.694272 41.565659 -2.194461 36.874901 41.451302 -24.724800 -13.514800 9.403270 5.412870 9.189420 -0.134037 2.761320 4.210320 -14.592000 6.366830 12.392400 -0.461747 2.375580 2.000000 -2.000000 0.000000 14.189400 -115.903999 124.001999 37.676201 -0.323057 0.083619 0.049285 -0.038348 -150.750000 -2.000000 2.000000 0.000000 7.427830 51.153900 109.991997 -35.010101 0.326826 0.078440 -0.071736 -0.062788 -110.037003 -56.769093 -6.748286 29.516287 23.321453 0.770768 3.037036 -7.223688 16.161312 5.195845 -80.508377 -4.455905 32.790985 38.503849 -1.611880 -3.195647 3.178899 15.689549 -0.953812 
-0.603341 41.590530 -2.215030 36.799198 40.760700 -24.266100 -13.301000 9.480860 4.961860 9.540970 0.172542 2.525010 2.928740 -14.310100 8.829740 12.158800 0.041156 3.533400 2.000000 -2.000000 0.000000 15.135300 -115.114998 122.603996 37.890999 -0.322743 0.084024 0.049719 -0.040072 -151.384995 -2.000000 2.000000 0.000000 9.730860 51.308201 112.207001 -38.633202 0.321646 0.085360 -0.072726 -0.064708 -109.265999 -56.502342 -6.740012 29.212564 23.359552 0.776940 3.017468 -7.087362 15.847326 5.061212 -80.117027 -4.668441 32.440098 38.688129 -1.638374 -3.189631 2.905740 15.381305 -0.923566 
-0.512407 41.615551 -2.235577 36.712898 40.087399 -23.817900 -13.086200 9.568180 4.512040 9.892180 0.489445 2.290650 1.666640 -13.969500 11.281700 11.945400 0.544580 4.677600 2.000000 -2.000000 0.000000 16.158701 -114.335999 121.139000 38.105900 -0.322427 0.084428 0.050180 -0.041817 -152.029007 -2.000000 2.000000 0.000000 12.063000 51.403801 114.421997 -42.265999 0.316023 0.091955 -0.073742 -0.066615 -108.494003 -56.275185 -6.716960 28.918421 23.514805 0.796302 3.006143 -6.999738 15.523642 4.930776 -79.683624 -4.926014 32.083847 38.755859 -1.645193 -3.180521 2.720831 15.069921 -0.896665 
-0.402173 41.675739 -2.265437 36.406200 39.315601 -23.413601 -12.817100 9.565090 3.824820 10.330900 0.855337 1.945340 0.096088 -13.117400 13.486000 11.401100 1.204970 5.773420 2.000000 -2.000000 0.000000 17.804501 -113.224998 118.774002 38.584400 -0.321719 0.085323 0.050109 -0.041553 -151.931000 -2.000000 2.000000 0.000000 14.034900 51.860401 116.735001 -45.273899 0.311059 0.097138 -0.074716 -0.068388 -107.771004 -55.788769 -6.806784 28.592438 23.435980 0.807291 3.001059 -6.876684 15.167244 4.803669 -78.989273 -5.250641 31.929529 38.785023 -1.649276 -3.181032 2.423627 14.678965 -0.845088 
-0.291938 41.736065 -2.295307 36.106998 38.554001 -22.981199 -12.535100 9.575410 3.148330 10.769200 1.222190 1.605640 -1.419180 -12.204600 15.659800 10.867400 1.866820 6.866700 2.000000 -2.000000 0.000000 19.653299 -112.153999 116.223000 39.062901 -0.321003 0.086213 0.050045 -0.041315 -151.843994 -2.000000 2.000000 0.000000 16.055599 52.268002 119.097000 -48.271900 0.305847 0.102037 -0.075726 -0.070173 -107.039001 -55.223507 -6.924129 28.237202 23.211031 0.795058 2.986636 -6.673177 14.822968 4.701156 -78.293587 -5.577854 31.771030 38.833401 -1.651436 -3.170699 2.107293 14.256204 -0.791493 
-0.165475 41.813667 -2.331513 35.642700 37.663700 -22.647301 -12.513700 9.649800 2.629790 10.924000 1.588620 1.341840 -3.131760 -11.263800 17.110100 10.068800 2.298720 7.638180 2.000000 -2.000000 0.000000 23.304501 -111.698997 112.178001 39.863701 -0.319789 0.087688 0.050720 -0.043767 -152.751999 -2.000000 2.000000 0.000000 19.172899 52.283199 122.620003 -51.152802 0.300604 0.106482 -0.073754 -0.066639 -108.484001 -54.584881 -7.017664 27.719501 23.170311 0.811922 2.961884 -6.572328 14.487540 4.588298 -77.497803 -6.032306 31.069141 38.871456 -1.680105 -3.179380 2.016079 14.173531 -0.801007 
-0.039006 41.891273 -2.367732 35.176899 36.776299 -22.292299 -12.491100 9.737140 2.118570 11.078500 1.945750 1.081660 -4.802850 -10.285500 18.532101 9.279860 2.750830 8.409340 2.000000 -2.000000 0.000000 27.089300 -111.341003 107.976997 40.664501 -0.318554 0.089146 0.051433 -0.046209 -153.660004 -2.000000 2.000000 0.000000 22.289301 52.180801 126.133003 -54.033699 0.295144 0.110658 -0.071885 -0.063080 -109.919998 -53.957138 -7.087909 27.165762 23.141516 0.808206 2.971901 -6.490783 14.154004 4.477499 -76.689194 -6.488022 30.361273 38.899151 -1.692752 -3.153775 1.932826 14.067450 -0.807723 
0.110837 41.974426 -2.417497 34.547600 35.776100 -22.018000 -12.674300 9.808900 1.997010 11.019200 2.060980 1.030980 -5.722340 -9.879880 19.028099 8.879500 2.831200 8.670180 2.000000 -2.000000 0.000000 31.512800 -111.919998 103.658997 41.738701 -0.316865 0.091074 0.052127 -0.048456 -154.500000 -2.000000 2.000000 0.000000 26.017900 50.729500 130.182007 -56.914600 0.289481 0.114554 -0.068249 -0.055454 -112.936996 -53.266373 -7.110666 26.487101 23.227140 0.842896 2.946361 -6.403122 13.903481 4.373404 -75.663292 -6.873608 29.806639 38.946770 -1.716002 -3.150623 1.700461 13.804922 -0.774135 
